<svg id="ComponentCLI_Logo" xmlns="http://www.w3.org/2000/svg" viewBox="0 0 95.729 95.7157"><g id="Component"><g id="Component_Left_Side" ><polygon points="25.883 54.766 46.99 66.569 46.99 54.766 25.883 42.964 25.883 54.766" fill="#ec2027"/></g><g id="Component_Right_Side" ><polygon points="48.739 54.766 48.739 66.569 69.846 54.766 69.846 42.964 48.739 54.766" fill="#ec2027"/></g><g id="Component_Top" ><path d="M64.3822,39.5362a2.0633,2.0633,0,0,0,.2781-1.0183c0-1.8214-2.557-3.2973-5.7152-3.2973a9.5081,9.5081,0,0,0-2.01.2109l-3.8894-2.1444a2.0151,2.0151,0,0,0,.2019-.8434c0-1.8213-2.5571-3.2972-5.7153-3.2972s-5.7242,1.4759-5.7242,3.2972a2.0943,2.0943,0,0,0,.3455,1.126h0c.776,1.2786,2.898,2.1758,5.3653,2.1758s4.5713-.8972,5.3833-2.1713a2.1,2.1,0,0,1,.3454,1.126c0,1.8214-2.57,3.2883-5.7287,3.2883S41.8083,36.5216,41.8083,34.7a2.1,2.1,0,0,1,.341-1.1215l-3.553,1.9784a9.28,9.28,0,0,0-2.5032-.332c-3.14,0-5.7153,1.4759-5.7153,3.2973a2.1,2.1,0,0,0,.3455,1.126c.0448.0717.0942.139.148.2108.8972,1.1529,2.8935,1.96,5.2218,1.96,2.4673,0,4.5713-.8972,5.3833-2.1712a2.1,2.1,0,0,1,.3454,1.126c0,1.8213-2.5571,3.2972-5.7153,3.2972s-5.7376-1.48-5.7376-3.3017a1.9892,1.9892,0,0,1,.139-.7223l-3.1626,1.7675L47.8376,53.2142,68.5,41.8151ZM47.5191,49.8542c-3.14,0-5.7153-1.476-5.7153-3.2973a2.0948,2.0948,0,0,1,.3455-1.126c.7985,1.2651,2.9025,2.1712,5.3832,2.1712s4.5713-.8972,5.3833-2.1712a2.1,2.1,0,0,1,.332,1.1036c0,1.8213-2.57,3.2972-5.7287,3.2972Zm11.43-5.7871c-3.14,0-5.7153-1.4759-5.7153-3.2972a2.0994,2.0994,0,0,1,.3455-1.126c.7985,1.265,2.9024,2.1712,5.3832,2.1712s4.5713-.8972,5.3833-2.1712a2.0993,2.0993,0,0,1,.3409,1.126C64.6648,42.5912,62.1033,44.0671,58.95,44.0671Z" transform="translate(0)" fill="#ec2027"/></g></g><g id="Top_Rightward_Arrow" ><path d="M49.0893.1229a.78.78,0,0,0-1.2.65v4.85a42.23,42.23,0,0,0-34.57,18,2,2,0,0,0,0,2.25l3.45,5.29a1.54,1.54,0,0,0,2.62-.08,33.13,33.13,0,0,1,28.49-16.33v4.84a.78.78,0,0,0,1.2.65l14.46-9.37a.78.78,0,0,0,0-1.31Z" transform="translate(0)" fill="#fcee21"/></g><g id="Right_Downward_Arrow" ><path d="M94.9793,47.8729h-4.84a42.23,42.23,0,0,0-18-34.57,2,2,0,0,0-2.25,0l-5.29,3.45a1.54,1.54,0,0,0,.08,2.62,33.13,33.13,0,0,1,16.32,28.5h-4.84a.78.78,0,0,0-.65,1.2l9.37,14.46a.78.78,0,0,0,1.31,0l9.41-14.45a.78.78,0,0,0-.62-1.21Z" transform="translate(0)" fill="#00a64f"/></g><g id="Bottom_Leftward_Arrow" ><path d="M46.6693,75.5028l-14.45,9.37a.78.78,0,0,0,0,1.31l14.45,9.41a.78.78,0,0,0,1.2-.65v-4.82a42.23,42.23,0,0,0,34.57-18,2,2,0,0,0,0-2.25l-3.45-5.29a1.54,1.54,0,0,0-2.62.08,33.13,33.13,0,0,1-28.49,16.33v-4.84a.78.78,0,0,0-1.21-.65Z" transform="translate(0)" fill="#2aace2"/></g><g id="Left_Upward_Arrow" ><path d="M23.6693,82.4429a2,2,0,0,0,2.25,0l5.29-3.45a1.54,1.54,0,0,0-.08-2.62,33.13,33.13,0,0,1-16.37-28.5h4.84a.78.78,0,0,0,.65-1.2l-9.37-14.46a.78.78,0,0,0-1.31,0l-9.44,14.45a.78.78,0,0,0,.65,1.21h4.84a42.23,42.23,0,0,0,18,34.56Z" transform="translate(0)" fill="#f16623"/></g></svg>